<svg viewBox="0 0 1972.8366 1350.8385" width="{{ $size * 1.5 }}" height="{{ $size }}"
    xmlns:inkscape="http://www.inkscape.org/namespaces/inkscape"
    xmlns:sodipodi="http://sodipodi.sourceforge.net/DTD/sodipodi-0.dtd" xmlns="http://www.w3.org/2000/svg"
    xmlns:svg="http://www.w3.org/2000/svg">
    <g id="g1178" transform="matrix(17.836548,0,0,17.836548,-351.32276,-197.15077)">
        <g id="OBJECTS" transform="matrix(0.30831165,0,0,0.30831165,17.653925,20.534395)" style="display:inline">
            <g id="g85">
                <path class="st1"
                    d="m 281.28,197.31 c -2.5,3.25 -5.44,5.66 -4.8,6.75 0,0 1.33,0.97 5.01,0.97 6.3,0 12.5,-0.48 11.48,-1.12 -1.41,-0.88 -5.49,-1.21 -9.39,-2.55 -0.96,-0.33 2.11,-2.2 1.27,-2.51 -1.74,-0.63 -3.09,-1.17 -3.57,-1.54 z"
                    id="path7" />
                <path class="st1"
                    d="m 346.22,203.88 c 0,0 0.83,1.16 4.01,1.16 5.45,0 11.13,-0.74 10.25,-1.29 -1.22,-0.76 -10.77,-2.76 -10.77,-2.76 l -2.14,-2.66 -3.63,2.01 z"
                    id="path9" />
                <g id="g13">
                    <path class="st2"
                        d="m 328.96,123.55 c -3.91,0 -6.87,-0.78 -7.11,-0.85 -2.04,-0.56 -3.24,-2.66 -2.68,-4.7 0.55,-2.04 2.65,-3.24 4.69,-2.69 0.13,0.04 8.74,2.24 13.76,-2.07 3.36,-2.89 4.64,-8.32 3.8,-16.16 l -0.27,-2.5 7.74,-4.39 c 1.84,-1.04 4.18,-0.4 5.22,1.44 1.04,1.84 0.4,4.17 -1.44,5.22 l -3.42,1.94 c 0.54,9.23 -1.7,16.05 -6.68,20.29 -4.21,3.59 -9.45,4.47 -13.61,4.47 z"
                        id="path11" style="fill:#4098d7;fill-opacity:1" />
                </g>
                <g id="g17">
                    <path class="st3"
                        d="m 342.2,102.31 c -0.15,5.57 -1.62,9.59 -4.43,12 -5.51,4.73 -14.95,2.32 -15.11,2.28 -2.24,-0.6 -4.54,0.72 -5.15,2.95 -0.61,2.24 0.71,4.55 2.95,5.16 0.27,0.07 3.52,1.69 7.81,1.54 16.28,-0.58 26.11,-14.63 26.29,-22.81 z"
                        id="path15" />
                </g>
                <g id="g35">
                    <path class="st4"
                        d="m 319.81,82.84 c -1.46,-0.65 -2.89,-1.36 -4.3,-2.11 -13.49,7.68 -30.73,17.53 -31.07,17.87 0,0 8.57,13.64 9.12,14.19 0.35,0.35 21.6,-14.89 36.88,-25.93 -3.54,-1.37 -7.17,-2.48 -10.63,-4.02 z"
                        id="path19" style="fill:#4098d7;fill-opacity:1" />
                    <path class="st5"
                        d="m 320.03,82.44 c 3.53,1.56 7.25,2.69 10.84,4.1 8.42,-6.08 14.92,-10.81 14.92,-10.81 l -14.38,-4.04 c 0,0 -6.92,3.93 -15.45,8.78 1.34,0.7 2.69,1.36 4.07,1.97 z"
                        id="path21" style="fill:#4098d7;fill-opacity:1" />
                    <polygon class="st6" points="320.26,93.53 299.29,55.23 295.24,64.53 303.71,87.46 " id="polygon23"
                        style="fill:#186faf;fill-opacity:1" />
                    <polygon class="st6" points="319.81,118.23 336.45,125.25 321.16,99.16 308.9,99.16 "
                        id="polygon25" />
                    <path class="st7"
                        d="m 336.45,125.25 -9.76,-16.66 -41.77,24.49 -8.21,-14.01 5.16,-83.3 18.77,-11 33.79,57.63 11.37,-6.66 9.45,16.13 -11.37,6.66 9.76,16.65 z m -37.89,-64.64 -1.06,0.62 -2.87,44.49 22.6,-13.25 z"
                        id="path27" style="fill:#2680c2;fill-opacity:1" />
                    <polygon class="st4" points="284.92,133.08 270.25,129.37 262.82,115.26 276.71,119.07 "
                        id="polygon29" style="fill:#186faf;fill-opacity:1" />
                    <polygon class="st5" points="281.87,35.77 269.13,32.72 262.82,115.26 276.71,119.07 " id="polygon31"
                        style="fill:#186faf;fill-opacity:1" />
                    <polygon class="st8" points="300.64,24.76 287.73,21.01 269.13,32.72 281.87,35.77 " id="polygon33"
                        style="fill:#62b0e8;fill-opacity:1" />
                </g>
                <path class="st1"
                    d="m 297.06,148.45 c 0,0 2.04,22.01 2.04,29.72 0,0 -16.03,12.49 -19.95,19.03 1.69,1.28 5.02,2.99 7.2,2.92 10.7,-10.21 22.43,-17.5 22.43,-17.5 0,0 5.06,-14.69 6.64,-27.13 z"
                    id="path37" />
                <path class="st3"
                    d="m 308.49,149.49 c 3.61,0.03 7.3,-0.6 10.4,-2.28 -1.04,-4.4 1.18,-17.37 3.96,-24.3 0,0 2.2,-4.83 0.66,-6.31 -5.7,-5.48 -10.55,-5.04 -12.06,-5.1 -5.23,4.42 -14.97,17.46 -14.58,34.69 2.68,2.83 8.15,3.28 11.62,3.3 z"
                    id="path39" />
                <path class="st9"
                    d="m 343.84,200.94 c 2.09,-0.58 4.09,-1.54 5.37,-3.25 -6.19,-10.04 -28.89,-46.91 -30.12,-49.8 -0.03,-0.07 -0.06,-0.16 -0.09,-0.24 -3.33,1.8 -7.31,2.43 -11.17,2.28 -3.36,-0.13 -8.22,-0.6 -10.96,-3.09 0.01,0.18 0.01,0.35 0.02,0.53 0.47,9.63 32.4,41.72 44.97,53.99 0.7,-0.1 1.37,-0.25 1.98,-0.42 z"
                    id="path41" />
                <g id="g45">
                    <path class="st2"
                        d="m 277.94,139.51 c -0.89,0 -1.74,-0.13 -2.55,-0.4 -1.69,-0.56 -3.92,-1.99 -4.98,-5.54 -0.6,-2.03 0.55,-4.16 2.58,-4.76 2.03,-0.6 4.16,0.56 4.76,2.58 0.07,0.24 0.14,0.39 0.18,0.47 0.41,0.02 1.92,-0.12 5.61,-2.28 3.3,-1.94 7.2,-4.82 10.97,-7.61 6.37,-4.71 12.39,-9.17 17.36,-10.74 2.01,-0.64 4.17,0.48 4.8,2.49 0.64,2.02 -0.48,4.17 -2.49,4.8 -3.75,1.19 -9.53,5.46 -15.12,9.59 -8.18,6.07 -15.39,11.4 -21.12,11.4 z"
                        id="path43" />
                </g>
                <g id="g51">
                    <path class="st2"
                        d="m 285.1,136.65 c -0.47,-2.25 -0.96,-4.74 -2.39,-6.59 -3.09,1.71 -4.4,1.82 -4.78,1.81 -0.05,-0.09 -0.11,-0.24 -0.18,-0.47 -0.6,-2.03 -2.73,-3.18 -4.76,-2.58 -2.03,0.6 -3.18,2.73 -2.58,4.76 1.05,3.56 3.29,4.98 4.98,5.54 0.81,0.27 1.67,0.4 2.55,0.4 2.22,0 4.67,-0.8 7.31,-2.14 -0.06,-0.25 -0.1,-0.49 -0.15,-0.73 z"
                        id="path47" style="fill:#4098d7;fill-opacity:1" />
                    <path class="st3"
                        d="m 316.67,113.73 c -0.64,-2.01 -2.79,-3.13 -4.8,-2.49 -4.97,1.57 -10.99,6.02 -17.36,10.74 -3.77,2.79 -7.67,5.67 -10.97,7.61 -0.15,0.09 -0.29,0.17 -0.44,0.25 1.43,1.89 3.91,11.21 3.95,11.43 4.06,-2.12 23.52,-16.94 27.74,-21.41 1.46,-1.55 2.52,-4.12 1.88,-6.13 z"
                        id="path49" />
                </g>
                <path class="st10" d="M 267.77,129.37" id="path53" />
                <g id="g57">
                    <path class="st2"
                        d="m 272.52,136.42 c -0.23,0 -0.45,-0.07 -0.65,-0.21 -3,-2.15 -4.57,-6.28 -4.63,-6.45 -0.22,-0.58 0.08,-1.23 0.66,-1.45 0.58,-0.21 1.23,0.08 1.45,0.66 v 0 c 0.01,0.04 1.4,3.67 3.83,5.41 0.51,0.36 0.62,1.06 0.26,1.57 -0.22,0.31 -0.56,0.47 -0.92,0.47 z"
                        id="path55" style="fill:#4098d7;fill-opacity:1" />
                </g>
                <g id="g61">
                    <path class="st2"
                        d="m 272.53,133.68 c -0.35,0 -0.7,-0.17 -0.92,-0.48 -1.44,-2.04 -2.59,-6.87 -2.71,-7.41 -0.14,-0.61 0.24,-1.21 0.84,-1.35 0.61,-0.14 1.21,0.24 1.35,0.84 0.32,1.36 1.36,5.21 2.36,6.63 0.36,0.51 0.24,1.21 -0.27,1.57 -0.2,0.13 -0.43,0.2 -0.65,0.2 z"
                        id="path59" style="fill:#4098d7;fill-opacity:1" />
                </g>
                <g id="g65">
                    <path class="st2"
                        d="m 274.08,133.04 c -0.44,0 -0.87,-0.26 -1.04,-0.7 -1.03,-2.53 -1.43,-7.83 -1.45,-8.05 -0.05,-0.62 0.42,-1.16 1.04,-1.21 0.62,-0.05 1.16,0.42 1.21,1.04 0.11,1.43 0.54,5.54 1.29,7.37 0.24,0.58 -0.04,1.23 -0.62,1.47 -0.15,0.06 -0.29,0.08 -0.43,0.08 z"
                        id="path63" style="fill:#4098d7;fill-opacity:1" />
                </g>
                <g id="g69">
                    <path class="st2"
                        d="m 275.77,132.5 c -0.5,0 -0.96,-0.34 -1.09,-0.84 -0.71,-2.75 -0.06,-5.55 -0.03,-5.67 0.14,-0.61 0.75,-0.98 1.35,-0.84 0.6,0.14 0.98,0.75 0.84,1.35 -0.01,0.05 -0.54,2.41 0.02,4.59 0.16,0.6 -0.21,1.22 -0.81,1.37 -0.1,0.03 -0.19,0.04 -0.28,0.04 z"
                        id="path67" style="fill:#4098d7;fill-opacity:1" />
                </g>
                <g id="g73">
                    <path class="st2"
                        d="m 321.02,119.85 c -0.52,0 -1.04,-0.11 -1.54,-0.35 -1.8,-0.85 -2.57,-3 -1.72,-4.79 0.89,-1.88 2.49,-3.81 2.67,-4.02 1.28,-1.52 3.55,-1.71 5.08,-0.43 1.52,1.28 1.71,3.55 0.43,5.07 v 0 c -0.45,0.54 -1.3,1.68 -1.67,2.46 -0.61,1.29 -1.9,2.06 -3.25,2.06 z"
                        id="path71" style="fill:#4098d7;fill-opacity:1" />
                </g>
                <g id="g77">
                    <path class="st11"
                        d="m 321.54,117.99 c 0.43,0.47 0.87,0.91 1.34,1.34 0.59,-0.35 1.09,-0.88 1.4,-1.54 0.37,-0.78 1.22,-1.92 1.67,-2.46 1.28,-1.52 1.09,-3.79 -0.43,-5.07 -1.52,-1.28 -3.79,-1.09 -5.08,0.43 -0.07,0.09 -0.36,0.44 -0.75,0.95 0.04,2.26 0.27,4.62 1.85,6.35 z"
                        id="path75" />
                </g>
                <g id="g81">
                    <path class="st2"
                        d="m 333.37,114.02 c -1.43,3.48 -5.41,5.13 -8.89,3.7 v 0 c -3.48,-1.43 -5.13,-5.41 -3.7,-8.89 l 1.8,-4.37 c 1.43,-3.48 5.42,-5.13 8.89,-3.7 v 0 c 3.48,1.43 5.13,5.41 3.7,8.89 z"
                        id="path79" style="fill:#4098d7;fill-opacity:1" />
                </g>
                <path class="st9"
                    d="m 321.54,108.32 c -0.55,2.34 -3.92,1.59 -5.18,0.37 -1.74,-1.68 -2.78,-6.44 1.08,-6.19 -2.78,-4.19 6.64,-8.73 7.63,-3.89 0.74,-1.25 1.49,-2.37 3.13,-2.48 1.18,-0.08 3.24,0.84 3.07,2.28 1.75,-1.38 4.3,-1.28 6.03,0.12 0.55,0.45 1.55,1.44 1.05,2.17 -0.27,0.4 -1.69,0.52 -2.17,0.67 0.82,-0.37 4.17,0.38 3.51,1.77 -0.31,0.65 -1.95,0.07 -2.43,-0.07 0,0 0,0.15 0,0.15 1.79,0.98 2.53,1.98 2.32,4.21 -0.1,1.03 -0.58,2.96 -1.8,3.11 -0.63,0.07 -1.35,-0.32 -1.34,-0.97 1.5,1.49 -0.62,5.49 -2.51,3.52 -0.74,-0.77 -0.38,-2.07 0.32,-2.74 -1.12,-0.64 -3.54,-4.04 -1.82,-4.95 -0.81,0.02 -4.54,-1.25 -3.35,-2.32 0.31,1.25 -1.23,2.86 -2.46,2.22 0.76,1.66 -1.48,2.9 -2.86,2.96 0.84,1.06 -1.76,2.32 -2.55,0.78 z"
                    id="path83" />
            </g>
            <g id="g269">
                <path class="st12" d="m 193.59,94.73 c 0,0 -2.19,-8.37 8.66,-10.35 l -0.83,10.05 z" id="path87"
                    style="fill:#2680c2;fill-opacity:1" />
                <g id="g91">
                    <path class="st13"
                        d="m 150.15,115.85 c -2.37,0 -4.58,-0.48 -6.62,-1.44 -9.85,-4.65 -10.94,-18.64 -10.99,-19.23 -0.15,-2.11 1.44,-3.94 3.55,-4.09 2.1,-0.15 3.93,1.44 4.08,3.54 0.21,2.81 1.82,10.6 6.64,12.86 3.98,1.87 10.14,-0.03 17.84,-5.5 1.72,-1.22 4.11,-0.82 5.34,0.9 1.22,1.72 0.82,4.11 -0.91,5.34 -7.13,5.08 -13.47,7.62 -18.93,7.62 z"
                        id="path89" />
                </g>
                <g id="g103">
                    <g id="g97">
                        <path class="st5"
                            d="m 170.51,123.04 c 1.06,-2.79 2.05,-5.63 3.2,-8.39 -0.77,-0.06 -1.56,-0.16 -2.35,-0.31 -3.71,-0.71 -6.86,-2.22 -9.43,-4.53 -2.58,-2.31 -4.56,-5.24 -5.97,-8.78 -1.4,-3.54 -2.22,-7.57 -2.45,-12.09 -0.23,-4.51 0.13,-9.28 1.09,-14.3 0.98,-5.12 2.4,-9.71 4.27,-13.77 1.87,-4.06 4.11,-7.48 6.72,-10.26 2.61,-2.78 5.54,-4.77 8.78,-5.97 3.24,-1.2 6.72,-1.45 10.44,-0.74 2.94,0.56 5.53,1.67 7.78,3.31 1.08,-2.16 2.25,-4.29 3.36,-6.41 1.31,-2.51 2.53,-5.06 3.7,-7.64 0.5,-1.1 0.93,-2.24 1.38,-3.36 -3.76,-2.15 -7.98,-3.67 -12.65,-4.56 -6.62,-1.26 -12.86,-1.03 -18.7,0.72 -5.85,1.74 -11.11,4.66 -15.79,8.76 -4.68,4.1 -8.66,9.24 -11.92,15.43 -3.26,6.19 -5.62,13.1 -7.08,20.72 -1.46,7.63 -1.81,14.92 -1.06,21.87 0.75,6.95 2.55,13.2 5.39,18.73 2.84,5.54 6.66,10.19 11.45,13.96 4.46,3.52 9.72,5.94 15.77,7.28 1.44,-3.19 2.82,-6.4 4.07,-9.67 z"
                            id="path93" style="fill:#62b0e8;fill-opacity:1" />
                        <path class="st6"
                            d="m 222.34,65.5 c -0.75,-6.95 -2.55,-13.2 -5.39,-18.73 -2.84,-5.54 -6.66,-10.19 -11.45,-13.96 -1.29,-1.02 -2.65,-1.94 -4.07,-2.77 -0.45,1.12 -0.88,2.26 -1.38,3.35 -1.19,2.57 -2.38,5.13 -3.7,7.64 -1.12,2.13 -2.3,4.27 -3.39,6.45 0.39,0.3 0.77,0.6 1.13,0.93 2.57,2.31 4.59,5.24 6.04,8.8 1.45,3.55 2.3,7.56 2.54,12.03 0.24,4.47 -0.13,9.26 -1.11,14.37 -0.96,5.02 -2.38,9.58 -4.25,13.7 -1.88,4.11 -4.15,7.55 -6.81,10.32 -2.66,2.77 -5.61,4.75 -8.86,5.95 -2.39,0.88 -4.88,1.25 -7.47,1.11 -1.27,3.02 -2.35,6.13 -3.51,9.19 -1.15,3.03 -2.44,5.99 -3.77,8.94 0.3,0.06 0.6,0.13 0.9,0.18 6.62,1.27 12.85,1.03 18.7,-0.72 5.84,-1.74 11.11,-4.66 15.79,-8.76 4.68,-4.1 8.65,-9.24 11.92,-15.43 3.26,-6.19 5.62,-13.09 7.08,-20.72 1.46,-7.63 1.81,-14.92 1.06,-21.87 z"
                            id="path95" style="fill:#186faf;fill-opacity:1" />
                    </g>
                    <g id="g101">
                        <path class="st7"
                            d="m 179.49,136.97 c -6.62,-1.27 -12.33,-3.79 -17.12,-7.56 -4.79,-3.77 -8.61,-8.43 -11.45,-13.96 -2.84,-5.54 -4.64,-11.78 -5.39,-18.73 -0.75,-6.95 -0.4,-14.24 1.06,-21.87 1.46,-7.62 3.81,-14.53 7.08,-20.72 3.26,-6.19 7.23,-11.33 11.92,-15.43 4.68,-4.1 9.94,-7.02 15.79,-8.76 5.84,-1.74 12.08,-1.98 18.7,-0.72 6.62,1.26 12.33,3.79 17.12,7.56 4.79,3.78 8.61,8.43 11.45,13.96 2.84,5.54 4.64,11.78 5.39,18.74 0.75,6.96 0.4,14.25 -1.06,21.87 -1.46,7.63 -3.82,14.53 -7.08,20.72 -3.26,6.19 -7.23,11.33 -11.92,15.43 -4.68,4.1 -9.95,7.02 -15.79,8.76 -5.85,1.73 -12.08,1.98 -18.7,0.71 z m 3.57,-18.66 c 3.61,0.69 7.04,0.44 10.29,-0.77 3.24,-1.2 6.2,-3.18 8.86,-5.95 2.66,-2.77 4.93,-6.21 6.81,-10.32 1.88,-4.11 3.3,-8.68 4.25,-13.7 0.98,-5.12 1.35,-9.91 1.11,-14.37 -0.24,-4.46 -1.09,-8.48 -2.54,-12.03 -1.45,-3.55 -3.47,-6.49 -6.04,-8.8 -2.58,-2.31 -5.67,-3.81 -9.28,-4.5 -3.71,-0.71 -7.19,-0.46 -10.44,0.74 -3.25,1.2 -6.17,3.19 -8.78,5.97 -2.61,2.78 -4.85,6.2 -6.72,10.26 -1.87,4.06 -3.29,8.65 -4.27,13.77 -0.96,5.02 -1.32,9.78 -1.09,14.3 0.23,4.52 1.04,8.54 2.45,12.09 1.4,3.54 3.39,6.47 5.97,8.78 2.56,2.31 5.7,3.82 9.42,4.53 z"
                            id="path99" style="fill:#2680c2;fill-opacity:1" />
                    </g>
                </g>
                <g id="g191">
                    <path class="st9" d="m 247,80.77 0.29,14.07 c 0,0 -4.02,3.6 -7.62,0 L 241,79 Z" id="path105" />
                    <path class="st1"
                        d="m 230.43,193 c -0.23,-0.18 -1.8,-0.91 -2.01,-1.09 -0.84,1.26 -1.43,1.96 -2.44,3 2.48,2.16 1.84,4.79 1.84,4.79 0,0 -1.75,1.51 -2.44,1.85 -2.19,1.08 -6.23,2.58 -6.23,2.58 l 10.17,0.8 7.54,-7.72 c -2.68,-1.5 -4.72,-2.86 -6.43,-4.21 z"
                        id="path107" />
                    <path class="st1"
                        d="m 190.6,193.55 c -1.62,-0.28 -3.66,0.96 -4.98,0 -0.31,2.83 -0.25,4.37 -0.25,4.37 l -15.04,6.2 h 19.21 c 0.17,-2.05 -0.19,-4.01 0.08,-5.91 0.14,-0.96 0.8,-3.72 0.98,-4.66 z"
                        id="path109" />
                    <path class="st13" d="m 208.11,125.28 -17,32.3 c 0,0 6.89,5.83 13.67,7.77 l 12.74,-38.05 z"
                        id="path111" />
                    <path class="st1"
                        d="m 226.72,195.72 c 1.02,-1.04 1.86,-2.29 2.7,-3.55 -4.4,-3.77 -6.55,-7.65 -12.52,-14.33 -2.47,-2.77 4.08,-18.6 5.67,-21.26 2.86,-4.77 3.3,-8.23 5.53,-16.4 l -16.6,6.2 c -3.95,14.15 -8.55,28.31 -3.94,35.06 4.88,7.14 13.53,12.89 17.71,15.76 0.15,0.11 1.31,-1.58 1.45,-1.48 z"
                        id="path113" />
                    <g id="g117">
                        <path class="st2"
                            d="m 198.77,93.06 c -0.23,0 -0.46,-0.07 -0.66,-0.21 -0.5,-0.36 -0.62,-1.07 -0.26,-1.57 1.34,-1.86 1.63,-3.4 1.63,-3.41 0.11,-0.61 0.69,-1.02 1.31,-0.91 0.61,0.11 1.02,0.69 0.91,1.3 -0.01,0.08 -0.36,2.02 -2.02,4.33 -0.22,0.31 -0.56,0.47 -0.91,0.47 z"
                            id="path115" style="fill:#4098d7;fill-opacity:1" />
                    </g>
                    <path class="st14"
                        d="m 226.92,143.6 c 4.94,-13.57 9.16,-34.86 10.74,-43.35 -0.88,-0.37 -1.75,-0.64 -2.44,-0.83 -1.47,-0.4 -3.22,-0.88 -4.73,-0.41 -0.76,0.24 -1.44,0.63 -2.11,1.05 -0.62,1.84 -0.87,3.4 -0.87,3.4 0,0 -10.61,20.29 -17.53,34.12 5.88,1.31 11.62,3.24 16.94,6.02 z"
                        id="path119" />
                    <path class="st9"
                        d="m 209.79,137.99 c 0,0 -0.01,0 0,0 -0.62,1.22 -1.2,2.4 -1.74,3.5 0,0 0,0 0,0 -1.36,2.41 -2.83,4.64 -4.25,6.78 -13.66,20.59 -18.81,37 -19.73,44.77 1.3,1.02 6.24,1.59 7.88,1.88 2.52,-12.88 9.08,-21.09 20.82,-30.8 3.93,-3.25 6.87,-7.38 9.46,-10.81 1.54,-2.04 3.07,-5.32 4.54,-9.29 -5.33,-2.79 -11.1,-4.72 -16.98,-6.03 z"
                        id="path121" />
                    <g id="g125">
                        <path class="st2"
                            d="m 196.54,143.65 c -1.59,0 -3.07,-0.99 -3.62,-2.57 -0.69,-2 0.37,-4.18 2.36,-4.87 4.64,-1.61 11.76,-7.96 16.57,-14.77 9.74,-13.82 16.58,-21.48 16.87,-21.8 1.41,-1.57 3.83,-1.7 5.4,-0.29 1.57,1.41 1.7,3.83 0.29,5.4 v 0 c -0.07,0.08 -6.85,7.68 -16.31,21.1 -4.74,6.72 -13.12,15.09 -20.31,17.59 -0.42,0.14 -0.84,0.21 -1.25,0.21 z"
                            id="path123" style="fill:#4098d7;fill-opacity:1" />
                    </g>
                    <g id="g129">
                        <path class="st2"
                            d="m 234.97,101.52 c -0.09,0 -0.18,0 -0.27,-0.01 -1.98,-0.15 -3.47,-1.87 -3.33,-3.86 0.15,-2.07 0.96,-4.45 1.05,-4.71 0.65,-1.88 2.7,-2.88 4.58,-2.23 1.88,0.65 2.88,2.7 2.23,4.58 -0.23,0.66 -0.61,2.03 -0.67,2.89 -0.14,1.89 -1.72,3.33 -3.59,3.34 z"
                            id="path127" />
                    </g>
                    <g id="g133">
                        <path class="st11"
                            d="m 236.02,97.72 c 0.64,0.73 1.33,1.38 2.07,1.98 0.26,-0.45 0.42,-0.97 0.47,-1.52 0.06,-0.86 0.45,-2.23 0.67,-2.89 0.65,-1.88 -0.35,-3.93 -2.23,-4.58 -1.56,-0.54 -3.23,0.06 -4.13,1.35 0.33,2.03 1.99,4.32 3.15,5.66 z"
                            id="path131" />
                    </g>
                    <g id="g137">
                        <path class="st2"
                            d="m 245.3,89.92 c -0.08,3.76 -3.2,6.74 -6.96,6.65 v 0 c -3.76,-0.08 -6.74,-3.2 -6.65,-6.96 l 0.11,-4.73 c 0.08,-3.76 3.2,-6.74 6.96,-6.66 v 0 c 3.76,0.08 6.74,3.2 6.66,6.96 z"
                            id="path135" style="fill:#4098d7;fill-opacity:1" />
                    </g>
                    <g id="g141">
                        <path class="st2"
                            d="m 191.13,142.6 c -1.57,0 -3.37,-0.42 -5.38,-1.27 -0.57,-0.24 -0.84,-0.9 -0.6,-1.47 0.24,-0.57 0.9,-0.84 1.47,-0.6 2.96,1.25 5.32,1.42 6.82,0.52 0.53,-0.32 1.22,-0.15 1.55,0.38 0.32,0.53 0.15,1.22 -0.38,1.54 -0.99,0.59 -2.15,0.9 -3.48,0.9 z"
                            id="path139" style="fill:#4098d7;fill-opacity:1" />
                    </g>
                    <g id="g145">
                        <path class="st2"
                            d="m 192.48,144.23 c -1.79,0 -3.23,-0.35 -4.86,-0.74 l -0.51,-0.12 c -0.6,-0.14 -0.98,-0.75 -0.83,-1.36 0.14,-0.6 0.75,-0.98 1.36,-0.83 l 0.51,0.12 c 2.73,0.66 4.53,1.1 8.53,0.07 0.61,-0.15 1.22,0.21 1.37,0.81 0.16,0.6 -0.21,1.22 -0.81,1.37 -1.93,0.49 -3.44,0.68 -4.76,0.68 z"
                            id="path143" style="fill:#4098d7;fill-opacity:1" />
                    </g>
                    <g id="g149">
                        <path class="st2"
                            d="m 191.05,140.38 c -3.53,0 -5.95,-2.17 -6.08,-2.29 -0.46,-0.42 -0.49,-1.13 -0.07,-1.59 0.42,-0.46 1.13,-0.49 1.59,-0.07 0.11,0.1 2.7,2.38 6.18,1.49 0.61,-0.16 1.22,0.21 1.37,0.81 0.16,0.6 -0.21,1.22 -0.81,1.37 -0.75,0.19 -1.49,0.28 -2.18,0.28 z"
                            id="path147" style="fill:#4098d7;fill-opacity:1" />
                    </g>
                    <g id="g153">
                        <path class="st2"
                            d="m 193.41,139.17 c -0.04,0 -0.09,0 -0.13,-0.01 -3.83,-0.45 -5.39,-3.21 -5.46,-3.33 -0.3,-0.54 -0.1,-1.23 0.45,-1.53 0.54,-0.3 1.22,-0.1 1.52,0.44 0.05,0.09 1.12,1.87 3.75,2.18 0.62,0.07 1.06,0.63 0.99,1.25 -0.07,0.58 -0.55,1 -1.12,1 z"
                            id="path151" style="fill:#4098d7;fill-opacity:1" />
                    </g>
                    <g id="g157">
                        <path class="st2"
                            d="m 206.86,94.69 c -0.06,0 -0.12,0 -0.18,-0.02 -1.86,-0.31 -6.96,-1.11 -8.14,-1.11 -0.62,0 -1.13,-0.5 -1.13,-1.13 0,-0.62 0.5,-1.13 1.13,-1.13 1.58,0 7.81,1.02 8.51,1.14 0.61,0.1 1.03,0.68 0.93,1.29 -0.1,0.57 -0.57,0.96 -1.12,0.96 z"
                            id="path155" style="fill:#4098d7;fill-opacity:1" />
                    </g>
                    <g id="g161">
                        <path class="st2"
                            d="m 206.14,97.05 c -0.1,0 -0.2,-0.01 -0.3,-0.04 -0.05,-0.01 -5.41,-1.47 -7.9,-1.61 -0.62,-0.04 -1.09,-0.57 -1.06,-1.19 0.04,-0.62 0.57,-1.11 1.19,-1.06 2.73,0.16 8.13,1.63 8.36,1.69 0.6,0.16 0.95,0.78 0.79,1.38 -0.13,0.5 -0.58,0.83 -1.08,0.83 z"
                            id="path159" style="fill:#4098d7;fill-opacity:1" />
                    </g>
                    <g id="g165">
                        <path class="st2"
                            d="m 205.6,99.53 c -0.12,0 -0.23,-0.02 -0.35,-0.05 -5.07,-1.64 -6.32,-1.74 -6.99,-1.79 -0.29,-0.02 -0.56,-0.05 -0.94,-0.14 -0.6,-0.16 -0.96,-0.77 -0.8,-1.38 0.16,-0.6 0.78,-0.96 1.38,-0.8 0.18,0.05 0.31,0.06 0.54,0.08 0.82,0.07 2.18,0.18 7.5,1.89 0.59,0.19 0.92,0.83 0.73,1.42 -0.15,0.46 -0.59,0.77 -1.07,0.77 z"
                            id="path163" style="fill:#4098d7;fill-opacity:1" />
                    </g>
                    <g id="g169">
                        <path class="st2"
                            d="m 203.38,101.33 c -0.03,0 -0.05,0 -0.08,0 -5.08,-0.36 -5.29,-3.12 -5.29,-3.43 l 2.25,-0.05 c 0,0 0,-0.03 -0.01,-0.07 0,0.01 0.23,1.1 3.21,1.31 0.62,0.04 1.09,0.58 1.04,1.2 -0.05,0.59 -0.54,1.04 -1.12,1.04 z"
                            id="path167" style="fill:#4098d7;fill-opacity:1" />
                    </g>
                    <path class="st2"
                        d="m 199.13,99.98 c 0,0 -0.98,-0.45 -2.5,-0.45 -1.28,0 -3.02,-2.17 -3.02,-4.43 0,0 -0.63,-6.65 6.39,-3.64 z"
                        id="path171" style="fill:#4098d7;fill-opacity:1" />
                    <path class="st13"
                        d="m 221.22,119.73 -9.84,48.43 c 0,0 15.23,3.67 24.58,-1.71 l 2.36,-67.29 c 0,0 -10.45,-3.65 -17.1,20.57 z"
                        id="path173" />
                    <path class="st3"
                        d="m 223.5,146.38 9.42,-0.51 c 0,0 0.23,14.41 -5.4,13.85 0,0 -7.71,1.68 -4.02,-13.34 z"
                        id="path175" />
                    <path class="st3"
                        d="m 235.33,98.01 c -1.03,-0.93 -2.37,-1.44 -3.76,-1.44 -1.6,0 -3.13,0.68 -4.19,1.87 -0.29,0.32 -7.17,8.02 -17,21.96 -0.64,0.91 -1.35,1.84 -2.11,2.77 l -1,1.23 1.09,1.15 c 1.16,1.23 2.38,2.42 3.55,3.58 0.64,0.63 1.28,1.25 1.91,1.89 l 1.39,1.39 1.26,-1.51 c 1.13,-1.35 2.17,-2.69 3.1,-4 9.4,-13.33 16.12,-20.86 16.18,-20.93 2.08,-2.32 1.88,-5.89 -0.42,-7.96 z"
                        id="path177" />

                    <rect x="209.69" y="119.98" transform="matrix(0.6683,-0.7439,0.7439,0.6683,-23.7093,200.0979)"
                        class="st15" width="5.6900001" height="13.31" id="rect179" />
                    <path class="st9"
                        d="m 224.85,92.62 8.65,3.39 c 0,0 3.68,-17.91 0.99,-20.59 0.01,0 -9.64,-0.91 -9.64,17.2 z"
                        id="path181" />
                    <path class="st9" d="m 235,78.54 c 0.31,0.46 7.02,4.94 12.29,3.7 0,0 -0.9,-7.92 -13.21,-6.77 z"
                        id="path183" />
                    <path class="st16"
                        d="m 240.19,86.98 c 0,2.08 -1.69,3.76 -3.76,3.76 -2.08,0 -3.76,-1.68 -3.76,-3.76 0,-2.08 1.68,-3.76 3.76,-3.76 2.07,0 3.76,1.68 3.76,3.76 z"
                        id="path185" />
                    <path class="st17"
                        d="m 248.68,87.72 c 0,1.81 -1.46,3.27 -3.27,3.27 -1.81,0 -3.27,-1.47 -3.27,-3.27 0,-1.81 1.47,-3.27 3.27,-3.27 1.81,0 3.27,1.46 3.27,3.27 z"
                        id="path187" />
                    <path class="st16" d="m 240.19,86.98 c 0,0 1.25,-0.49 1.99,0.26" id="path189" />
                </g>
                <g id="g267">
                    <g id="g195">
                        <path class="st11"
                            d="m 130.7,93.57 c -0.09,0 -0.18,0 -0.27,-0.01 -1.98,-0.14 -3.47,-1.87 -3.33,-3.85 0.15,-2.07 0.96,-4.45 1.05,-4.71 0.65,-1.88 2.7,-2.88 4.58,-2.23 1.88,0.65 2.88,2.7 2.23,4.58 -0.23,0.66 -0.61,2.03 -0.67,2.89 -0.14,1.89 -1.72,3.33 -3.59,3.33 z"
                            id="path193" style="fill:#4098d7;fill-opacity:1" />
                    </g>
                    <g id="g207">
                        <path class="st1"
                            d="m 128.56,193.53 c 5.97,2.75 10.86,2.7 11.26,2.75 3.89,-6.92 15.61,-25.67 4.95,-41.05 l -15.08,-8.1 c -0.01,0 15.07,15.74 -1.13,46.4 z"
                            id="path197" />
                        <path class="st1"
                            d="m 136.36,199.66 c 0,0 1.39,-2.83 2.48,-4.72 -0.82,-0.1 -4.47,-0.25 -5.97,-0.82 -1.41,2.88 -4.48,7.09 -6.64,9.98 h 20.26 z"
                            id="path199" />
                        <path class="st9"
                            d="m 161.42,156.14 c -2.52,-4.89 -20.82,-19.62 -22.48,-28.08 -0.15,-0.75 -0.27,-1.52 -0.38,-2.3 -2.94,1.55 -6.75,1.98 -9.78,2.13 -3.43,0.17 -5.48,0.39 -8.8,-1.23 0.28,5.25 -0.57,10.32 2.49,15.64 6.08,10.55 26.27,19.59 28.53,23.07 4.44,6.88 5.98,21.81 7.49,30.92 2.38,0 8.02,-0.1 10.33,-0.93 -0.77,-4.67 0.5,-23.9 -7.4,-39.22 z"
                            id="path201" />
                        <path class="st1"
                            d="m 167.73,198.84 c 0,0 -0.66,-2.66 -0.85,-3.91 -2.32,0.81 -3.67,-0.01 -6.05,0 0.36,2.26 0.09,6.48 0.3,8.96 h 19.21 z"
                            id="path203" />
                        <path class="st13"
                            d="m 128.93,130.65 c 2.93,-0.13 9.07,-0.95 11.54,-3.41 -0.5,-4.02 -2.3,-10.48 -1.67,-15.68 2.14,-17.63 -6.46,-22.91 -6.46,-22.91 0,0 -3.96,-2.77 -7.17,0.54 -4.84,4.99 -9.57,19.09 -9.09,39.94 3.32,1.72 9.34,1.68 12.85,1.52 z"
                            id="path205" />
                    </g>
                    <g id="g211">
                        <path class="st2"
                            d="m 173.07,136.21 c -0.29,0 -0.58,-0.03 -0.87,-0.1 -13.87,-3.22 -25.62,-11.53 -33.97,-24.04 -6.26,-9.37 -8.42,-17.78 -8.51,-18.13 -0.52,-2.05 0.73,-4.13 2.78,-4.64 2.05,-0.52 4.13,0.72 4.64,2.77 0.04,0.15 2.03,7.72 7.6,15.97 7.34,10.89 17.17,17.82 29.19,20.62 2.06,0.48 3.34,2.53 2.86,4.59 -0.4,1.77 -1.98,2.96 -3.72,2.96 z"
                            id="path209" style="fill:#4098d7;fill-opacity:1" />
                    </g>
                    <path class="st3"
                        d="m 164.64,124.72 c -7.64,-3.62 -14.15,-9.36 -19.34,-17.05 -5.5,-8.15 -7.49,-15.69 -7.5,-15.76 -0.51,-2 -2.3,-3.4 -4.36,-3.4 -0.37,0 -0.74,0.05 -1.1,0.14 -1.17,0.29 -2.15,1.02 -2.76,2.06 -0.62,1.03 -0.79,2.24 -0.5,3.41 l 0.02,0.08 c 0.59,2.58 2.96,11.64 8.59,20.06 6.74,10.09 15.88,17.63 26.43,21.83 0.08,0.03 0.17,0.05 0.25,0.05 0.13,0 0.27,-0.04 0.38,-0.12 0.18,-0.13 0.3,-0.33 0.3,-0.56 v -10.13 c -0.02,-0.27 -0.17,-0.5 -0.41,-0.61 z"
                        id="path213" />
                    <g id="g217">
                        <path class="st2"
                            d="m 175.91,136.49 c -1.23,0 -2.53,-0.14 -3.9,-0.41 -0.61,-0.12 -1,-0.71 -0.88,-1.32 0.12,-0.61 0.71,-1.01 1.33,-0.88 3.35,0.67 6.15,0.43 8.31,-0.73 0.55,-0.29 1.23,-0.08 1.52,0.46 0.29,0.55 0.08,1.23 -0.46,1.52 -1.71,0.91 -3.69,1.36 -5.92,1.36 z"
                            id="path215" style="fill:#4098d7;fill-opacity:1" />
                    </g>
                    <g id="g221">
                        <path class="st2"
                            d="m 176.07,133.97 c -0.54,0 -1.09,-0.04 -1.65,-0.12 -0.62,-0.09 -1.04,-0.66 -0.95,-1.28 0.09,-0.62 0.66,-1.04 1.28,-0.95 3.6,0.53 6.93,-1.34 6.97,-1.36 0.54,-0.31 1.23,-0.12 1.54,0.42 0.31,0.54 0.12,1.22 -0.41,1.54 -0.15,0.07 -3.11,1.75 -6.78,1.75 z"
                            id="path219" style="fill:#4098d7;fill-opacity:1" />
                    </g>
                    <g id="g225">
                        <path class="st2"
                            d="m 175.07,131.75 c -0.17,0 -0.35,-0.01 -0.54,-0.02 -0.62,-0.04 -1.09,-0.57 -1.05,-1.19 0.04,-0.62 0.57,-1.09 1.19,-1.05 2.66,0.16 4.06,-1.45 4.07,-1.47 0.39,-0.48 1.1,-0.56 1.58,-0.16 0.48,0.39 0.56,1.1 0.16,1.58 -0.06,0.1 -1.9,2.31 -5.41,2.31 z"
                            id="path223" style="fill:#4098d7;fill-opacity:1" />
                    </g>
                    <g id="g229">
                        <path class="st2"
                            d="m 171.18,129.86 c -0.62,0 -1.13,-0.5 -1.13,-1.13 0,-0.62 0.5,-1.12 1.12,-1.13 0.1,0 2.32,-0.05 3.59,-1.88 0.35,-0.51 1.06,-0.64 1.57,-0.28 0.51,0.35 0.64,1.05 0.28,1.57 -1.95,2.81 -5.29,2.85 -5.43,2.85 z"
                            id="path227" style="fill:#4098d7;fill-opacity:1" />
                    </g>
                    <g id="g233">
                        <path class="st2"
                            d="m 167.5,104.45 c -0.35,0 -0.7,-0.16 -0.92,-0.47 -1.66,-2.31 -2.01,-4.25 -2.02,-4.34 -0.11,-0.61 0.31,-1.19 0.92,-1.3 0.61,-0.11 1.19,0.3 1.3,0.92 0,0.01 0.3,1.54 1.63,3.4 0.36,0.51 0.25,1.21 -0.26,1.57 -0.19,0.15 -0.42,0.22 -0.65,0.22 z"
                            id="path231" style="fill:#4098d7;fill-opacity:1" />
                    </g>
                    <g id="g237">
                        <path class="st2"
                            d="m 167.74,104.95 c -0.07,0 -0.14,-0.01 -0.21,-0.02 -2.46,-0.47 -7.35,-0.48 -7.4,-0.48 -0.62,0 -1.13,-0.5 -1.13,-1.13 0,-0.63 0.5,-1.13 1.13,-1.13 0.21,0 5.15,0.01 7.82,0.52 0.61,0.12 1.01,0.7 0.89,1.32 -0.1,0.54 -0.57,0.92 -1.1,0.92 z"
                            id="path235" style="fill:#4098d7;fill-opacity:1" />
                    </g>
                    <g id="g241">
                        <path class="st2"
                            d="m 159.51,107.29 c -0.56,0 -1.04,-0.42 -1.12,-0.99 -0.08,-0.62 0.36,-1.18 0.98,-1.26 0.71,-0.09 7.04,-0.86 9.08,-0.5 0.61,0.11 1.02,0.69 0.91,1.3 -0.11,0.61 -0.69,1.02 -1.3,0.91 -1.29,-0.23 -5.84,0.2 -8.41,0.51 -0.05,0.03 -0.1,0.03 -0.14,0.03 z"
                            id="path239" style="fill:#4098d7;fill-opacity:1" />
                    </g>
                    <g id="g245">
                        <path class="st2"
                            d="m 160.97,109.84 c -0.53,0 -1,-0.37 -1.1,-0.91 -0.12,-0.61 0.28,-1.2 0.89,-1.32 2.73,-0.53 3.45,-0.76 4.77,-1.18 0.62,-0.2 1.39,-0.45 2.54,-0.78 0.6,-0.17 1.22,0.17 1.39,0.77 0.17,0.6 -0.17,1.22 -0.77,1.39 -1.12,0.32 -1.84,0.56 -2.47,0.76 -1.36,0.44 -2.18,0.7 -5.04,1.25 -0.07,0.01 -0.14,0.02 -0.21,0.02 z"
                            id="path243" style="fill:#4098d7;fill-opacity:1" />
                    </g>
                    <g id="g249">
                        <path class="st2"
                            d="m 163.4,111.63 c -0.54,0 -1.01,-0.39 -1.11,-0.94 -0.1,-0.61 0.31,-1.2 0.92,-1.3 3.65,-0.63 4.37,-1.98 4.38,-2 0.2,-0.59 0.83,-0.91 1.42,-0.72 0.59,0.2 0.91,0.83 0.72,1.42 -0.14,0.44 -1.12,2.65 -6.13,3.51 -0.08,0.02 -0.14,0.03 -0.2,0.03 z"
                            id="path247" style="fill:#4098d7;fill-opacity:1" />
                    </g>
                    <path class="st2"
                        d="m 167.74,110.27 -0.86,-9.17 c 0,0 4.02,0.29 4.02,4.51 -0.01,1.41 -0.42,2.97 -3.16,4.66 z"
                        id="path251" style="fill:#4098d7;fill-opacity:1" />
                    <g id="g255">
                        <path class="st2"
                            d="m 142.41,80.39 c 1.02,3.84 -1.27,7.78 -5.12,8.79 v 0 c -3.84,1.02 -7.78,-1.27 -8.8,-5.11 l -1.28,-4.83 c -1.02,-3.84 1.27,-7.78 5.12,-8.79 v 0 c 3.84,-1.02 7.78,1.27 8.8,5.11 z"
                            id="path253" style="fill:#4098d7;fill-opacity:1" />
                    </g>
                    <g id="g259">
                        <path class="st9"
                            d="m 141.73,77.83 c -0.55,1.52 -1.32,3.03 -2.51,4.06 -2.9,2.5 -7.34,3.17 -10.86,1.67 l 0.13,0.5 c 1.02,3.84 4.95,6.13 8.8,5.11 3.84,-1.02 6.13,-4.95 5.12,-8.79 z"
                            id="path257" />
                    </g>
                    <path class="st9"
                        d="m 128.47,83.8 c -2.7,-1.73 -5.62,-8.33 -1.35,-9.77 2.64,-0.89 1.58,7.25 1.58,9.55 z"
                        id="path261" />
                    <path class="st9"
                        d="m 126.3,74.57 c -3.27,-2.37 0.78,-9.06 8.85,-9.06 4.99,0 4.95,3.82 1.5,5.88 -2.86,1.71 -7.3,0.71 -9.45,3.63 z"
                        id="path263" />
                    <path class="st9"
                        d="m 141.73,79.31 c -1.14,-1.73 -3.4,-5.25 -4.27,-7.22 -0.56,-1.26 -1.32,-3.4 1.2,-1.88 2.11,1.27 3.25,5.76 3.05,8.04 z"
                        id="path265" />
                </g>
            </g>
            <g id="g321" style="display:inline">
                <g id="g287">
                    <path class="st6"
                        d="m 84.71,95.31 c -1.24,1.15 -2.61,2.22 -3.73,3.5 l -16.25,33.94 12.1,-15.61 12.85,-26.56 c -1.65,1.6 -3.3,3.18 -4.97,4.73 z"
                        id="path271" />
                    <path class="st6"
                        d="m 75.07,89.74 c 1.18,-1.61 2.31,-3.51 3.65,-5.17 L 50.28,70.69 23.3,73.39 70.58,95.19 c 1.55,-1.77 3.11,-3.56 4.49,-5.45 z"
                        id="path273" style="fill:#186faf;fill-opacity:1" />
                    <path class="st5"
                        d="m 79.13,84.77 c -1.51,1.89 -2.74,4.12 -4.19,5.88 -1.3,1.59 -2.61,3.17 -3.95,4.73 l 21.49,9.91 7.8,-10.19 z"
                        id="path275" style="fill:#62b0e8;fill-opacity:1" />
                    <path class="st7"
                        d="M 46.76,124.16 55.1,106.75 11.43,85.84 18.44,71.19 90.36,28.84 l 19.63,9.4 -28.85,60.24 11.89,5.69 -8.07,16.86 -11.89,-5.69 -8.34,17.41 z M 79.11,56.58 78,56.05 39.54,78.57 63.17,89.88 Z"
                        id="path277" style="fill:#2680c2;fill-opacity:1" />
                    <polygon class="st6" points="93.02,104.17 100.29,95.1 94.59,107.75 84.68,121.58 " id="polygon279" />
                    <path class="st6"
                        d="M 90.24,90.08 118.6,27.91 109.98,38.22 81.14,98.48 c 0.8,-0.77 8.64,-7.94 9.1,-8.4 z"
                        id="path281" style="fill:#186faf;fill-opacity:1" />
                    <polygon class="st18" points="18.44,71.19 31.25,60.03 101.53,19.7 90.36,28.83 " id="polygon283"
                        style="fill:#4098d7;fill-opacity:1" />
                    <polygon class="st8" points="90.36,28.83 109.98,38.23 118.6,27.91 101.53,19.7 " id="polygon285"
                        style="fill:#62b0e8;fill-opacity:1" />
                </g>
                <path class="st2"
                    d="m 66.27,74.24 c -2.41,-1.72 -4.08,-0.96 -5.24,-0.79 -1.27,0.2 -2.21,-0.5 -2.21,-0.5 -0.52,-0.34 -1.22,-0.19 -1.56,0.33 -0.34,0.52 -0.19,1.22 0.33,1.56 0.05,0.03 1.04,0.66 2.75,1.11 -1.87,1.71 -3.78,3.77 -3.89,3.88 -0.42,0.46 -0.39,1.17 0.06,1.59 0.22,0.2 0.49,0.3 0.76,0.3 0.3,0 0.61,-0.12 0.83,-0.36 0.02,-0.02 1.35,-1.46 2.84,-2.89 -1.38,1.73 -2.67,3.52 -2.91,3.85 -0.36,0.51 -0.25,1.21 0.26,1.57 0.2,0.14 0.43,0.21 0.66,0.21 0.35,0 0.7,-0.16 0.92,-0.47 0.74,-1.03 1.78,-2.42 2.77,-3.67 -0.37,0.73 -0.84,1.56 -1.78,3.07 -0.33,0.53 -0.17,1.22 0.36,1.55 0.18,0.11 0.39,0.17 0.59,0.17 0.38,0 0.74,-0.19 0.96,-0.53 0.39,-0.62 0.7,-1.14 0.96,-1.58 -0.2,0.49 -0.03,1.06 0.43,1.36 0.19,0.12 0.4,0.18 0.61,0.18 0.37,0 0.73,-0.18 0.94,-0.51 1.05,-1.62 1.57,-2.95 1.79,-3.99 l 0.05,0.03 c 0.63,-3.15 -0.13,-4.65 -1.28,-5.47 z m -2.25,7.92 c 0.37,-0.65 0.63,-1.15 0.87,-1.64 -0.21,0.48 -0.49,1.02 -0.87,1.64 z"
                    id="path289" style="fill:#4098d7;fill-opacity:1" />
                <path class="st9"
                    d="m 31.8,87.01 c -3.56,-0.2 -8.73,6.77 -3.44,8.67 -4.79,-0.11 -5.96,6.66 -1.57,8.53 -7.69,-1.5 -6.79,8.47 -3.16,12.07 -2.46,-0.39 -4.96,1.96 -4.58,4.53 0.38,2.58 1.4,6.16 7.79,8.08 6.39,1.92 10.29,-1.67 13.47,-5.06 2.04,4.16 12.09,-1.46 10.98,-6.44 3.8,1.35 7.2,-2.96 7.27,-6.4 0.07,-3.36 -2.28,-5.92 -4.52,-8.11 1.58,-1.44 1.88,-4.12 1.46,-6.16 -0.69,-3.4 -4.94,-3.74 -4.94,-6.44 0,-0.95 0.18,-3.89 -0.63,-5.18 -1.28,-2.05 -3.52,-4.09 -6.33,-3.08 -11.8,-5.61 -11.8,4.99 -11.8,4.99 z"
                    id="path291" />
                <path class="st1"
                    d="m 38.68,196.29 c -3.25,-0.57 -3.77,-0.4 -6.98,-1.19 l -7.43,9.08 h 28.81 l -16.73,-4.5 z"
                    id="path293" />
                <path class="st1" d="m 92.33,198.89 -1.7,-2.24 c -1.54,0.99 -3.14,1.84 -4.87,2.45 l 4.55,5.08 h 16.88 z"
                    id="path295" />
                <path class="st1"
                    d="m 28.65,196.32 c 3.23,0.79 6.46,1.61 9.72,2.17 l 23.79,-29.27 -4.05,-11.63 -16.66,-19.21 4.8,27.22 z"
                    id="path297" />
                <path class="st9"
                    d="m 61.01,130.31 c -6.53,-1.73 -15.38,0.46 -21.73,2.86 0,0 3.9,15.51 6.45,20.14 7.45,13.47 39.66,47.09 39.66,47.09 1.77,-0.6 5.18,-3.1 6.74,-4.11 z"
                    id="path299" />
                <path class="st13"
                    d="m 38.42,139.23 c 6.3,-2.37 18.95,-6.36 25.44,-4.74 0,0 -8.59,-20.19 -12.49,-24.64 -2.63,-3 -17.01,-11.46 -17.01,-0.4 0,15.15 4.06,29.78 4.06,29.78 z"
                    id="path301" />
                <g id="g305">
                    <path class="st2"
                        d="m 44.02,108.51 c -0.08,0.03 -0.17,0.05 -0.26,0.08 -1.92,0.52 -3.9,-0.62 -4.42,-2.54 -0.54,-2.01 -0.57,-4.52 -0.57,-4.79 -0.01,-1.99 1.6,-3.61 3.59,-3.62 1.99,-0.01 3.61,1.6 3.62,3.58 0,0.7 0.1,2.12 0.32,2.95 0.5,1.84 -0.51,3.72 -2.28,4.34 z"
                        id="path303" />
                </g>
                <g id="g309">
                    <path class="st11"
                        d="m 46.43,104.95 c -0.01,-0.26 -0.05,-0.52 -0.12,-0.78 -0.22,-0.83 -0.31,-2.25 -0.32,-2.95 -0.01,-1.99 -1.63,-3.59 -3.62,-3.58 -1.99,0.01 -3.6,1.63 -3.59,3.62 0,0.04 0,0.15 0,0.3 1.78,2 4.71,2.95 7.65,3.39 z"
                        id="path307" />
                </g>
                <g id="g313">
                    <path class="st2"
                        d="m 49.95,94.15 c 1.16,3.58 -0.8,7.42 -4.37,8.58 v 0 C 42,103.89 38.16,101.93 37,98.36 l -1.46,-4.5 c -1.16,-3.58 0.8,-7.42 4.37,-8.58 v 0 c 3.58,-1.16 7.42,0.79 8.58,4.37 z"
                        id="path311" style="fill:#4098d7;fill-opacity:1" />
                </g>
                <path class="st2"
                    d="m 90.06,90.53 c -0.14,-0.12 -0.31,-0.19 -0.48,-0.23 0.16,-0.18 0.34,-0.37 0.54,-0.59 0.42,-0.46 0.39,-1.17 -0.07,-1.59 -0.06,-0.05 -0.12,-0.1 -0.18,-0.13 0.31,-0.45 0.26,-1.07 -0.15,-1.46 -0.32,-0.3 -0.77,-0.37 -1.15,-0.23 0.51,-0.52 0.83,-0.88 0.87,-0.92 0.41,-0.47 0.37,-1.18 -0.1,-1.59 -0.47,-0.41 -1.18,-0.37 -1.59,0.1 -0.03,0.03 -2.47,2.79 -4.99,4.22 -1.09,-1.65 -2.56,-2.23 -2.64,-2.26 -0.58,-0.22 -1.21,0.07 -1.44,0.65 -0.22,0.57 0.06,1.22 0.63,1.46 0.05,0.02 0.91,0.38 1.58,1.41 -0.09,0.25 -0.2,0.62 -0.26,1.04 -16.56,22.42 -38.53,14.46 -39.52,14.08 -1.97,-0.75 -4.18,0.22 -4.94,2.19 -0.76,1.97 0.21,4.19 2.18,4.95 0.27,0.1 5.64,2.15 13.31,2.15 1.54,0 3.18,-0.08 4.88,-0.28 8.27,-0.96 20.5,-5.72 30.27,-18.32 0.16,-0.09 0.39,-0.23 0.69,-0.45 0.2,-0.13 0.4,-0.27 0.61,-0.44 l -0.03,-0.02 c 0.58,-0.49 1.29,-1.17 2.1,-2.14 0.42,-0.49 0.35,-1.2 -0.12,-1.6 z"
                    id="path315" style="fill:#4098d7;fill-opacity:1" />
                <path class="st3"
                    d="m 59.56,104.54 -0.93,0.2 c -2.27,0.49 -4.63,0.74 -7,0.74 -5.81,0 -9.84,-1.46 -10.28,-1.63 -0.52,-0.2 -1.06,-0.3 -1.61,-0.3 -1.87,0 -3.52,1.13 -4.2,2.88 -0.43,1.12 -0.51,2.4 0.08,3.44 2.2,3.9 8.23,5.48 16.05,5.48 1.66,0 3.33,-0.1 4.96,-0.28 1,-0.12 2.04,-0.29 3.11,-0.51 l 0.66,-0.17 c 0,0 -0.94,-2.84 -1.14,-5.73 -0.08,-1.11 0.3,-4.12 0.3,-4.12 z"
                    id="path317" />
                <path class="st9"
                    d="m 35.38,97.48 c 2.36,-1.5 3.18,-4.32 2.92,-7.13 2.07,1.39 3.71,0.54 5.01,-1.85 3.93,5.5 9.91,-2.68 1.75,-5.65 -6.53,-2.37 -12.93,4.09 -11.26,10.58 z"
                    id="path319" />
            </g>
        </g><text xml:space="preserve" style="font-size:7.83115px;fill:#2680c2;fill-opacity:1;stroke-width:0.652596"
            x="29.106709" y="19.863316" id="text808">
            <tspan sodipodi:role="line" id="tspan806" x="0" y="19.863316"
                style="font-style:normal;font-variant:normal;font-weight:500;font-stretch:normal;font-family:Roboto;-inkscape-font-specification:'Roboto Medium';fill:#2680c2;fill-opacity:1;stroke-width:0.652596">
                Berkas Tidak Ditemukan...</tspan>
        </text>
    </g>
    <style type="text/css" id="style2">
        .st0 {
            fill-rule: evenodd;
            clip-rule: evenodd;
            fill: #FFFFFF;
        }

        .st1 {
            fill: #002E4F;
        }

        .st2 {
            fill: #00A4E2;
        }

        .st3 {
            fill: #E1F3F6;
        }

        .st4 {
            fill: #008DC4;
        }

        .st5 {
            fill: #00AFE2;
        }

        .st6 {
            fill: #006091;
        }

        .st7 {
            fill: #0076AD;
        }

        .st8 {
            fill: #00D2FD;
        }

        .st9 {
            fill: #00396A;
        }

        .st10 {
            fill: none;
            stroke: #20C6F0;
            stroke-width: 7.6539;
            stroke-linecap: round;
            stroke-miterlimit: 10;
        }

        .st11 {
            fill: #0086CF;
        }

        .st12 {
            fill: #0089E0;
        }

        .st13 {
            fill: #CDE5E8;
        }

        .st14 {
            fill: #F6EE9E;
        }

        .st15 {
            fill: #F8FDFF;
        }

        .st16 {
            fill: none;
            stroke: #DDDD67;
            stroke-width: 0.8679;
            stroke-miterlimit: 10;
        }

        .st17 {
            fill: none;
            stroke: #DDDD67;
            stroke-width: 0.755;
            stroke-miterlimit: 10;
        }

        .st18 {
            fill: #009EE7;
        }
    </style>
</svg>